<mxfile host="app.diagrams.net" modified="2024-05-31T13:30:56.716Z" agent="Mozilla/5.0 (Windows NT 10.0; Win64; x64) AppleWebKit/537.36 (KHTML, like Gecko) Chrome/125.0.0.0 Safari/537.36" etag="MXANzOp5ZpYixEHFU5Pj" version="24.4.13" type="device">
  <diagram name="Trang-1" id="GBHsGRjqSpX1fSHoydOT">
    <mxGraphModel dx="794" dy="412" grid="1" gridSize="10" guides="1" tooltips="1" connect="1" arrows="1" fold="1" page="1" pageScale="1" pageWidth="827" pageHeight="1169" math="0" shadow="0">
      <root>
        <mxCell id="0" />
        <mxCell id="1" parent="0" />
        <mxCell id="dxGkeruf2liwoezaFk6p-1" value="Client" style="swimlane;whiteSpace=wrap;html=1;" vertex="1" parent="1">
          <mxGeometry x="80" y="40" width="280" height="720" as="geometry" />
        </mxCell>
        <mxCell id="dxGkeruf2liwoezaFk6p-2" value="" style="ellipse;shape=doubleEllipse;whiteSpace=wrap;html=1;aspect=fixed;fillColor=#000000;" vertex="1" parent="dxGkeruf2liwoezaFk6p-1">
          <mxGeometry x="20" y="55" width="30" height="30" as="geometry" />
        </mxCell>
        <mxCell id="dxGkeruf2liwoezaFk6p-3" value="Vào màn hình danh sách" style="rounded=0;whiteSpace=wrap;html=1;" vertex="1" parent="dxGkeruf2liwoezaFk6p-1">
          <mxGeometry x="70" y="40" width="140" height="60" as="geometry" />
        </mxCell>
        <mxCell id="dxGkeruf2liwoezaFk6p-4" value="" style="endArrow=classic;html=1;rounded=0;exitX=1;exitY=0.5;exitDx=0;exitDy=0;entryX=0;entryY=0.5;entryDx=0;entryDy=0;" edge="1" parent="dxGkeruf2liwoezaFk6p-1" source="dxGkeruf2liwoezaFk6p-2" target="dxGkeruf2liwoezaFk6p-3">
          <mxGeometry width="50" height="50" relative="1" as="geometry">
            <mxPoint x="310" y="200" as="sourcePoint" />
            <mxPoint x="360" y="150" as="targetPoint" />
          </mxGeometry>
        </mxCell>
        <mxCell id="dxGkeruf2liwoezaFk6p-14" value="Nhập từ khóa tìm kiếm vào ô tìm kiếm trên giao diện" style="rounded=0;whiteSpace=wrap;html=1;" vertex="1" parent="dxGkeruf2liwoezaFk6p-1">
          <mxGeometry x="70" y="150" width="140" height="60" as="geometry" />
        </mxCell>
        <mxCell id="dxGkeruf2liwoezaFk6p-15" value="" style="endArrow=classic;html=1;rounded=0;exitX=0.5;exitY=1;exitDx=0;exitDy=0;entryX=0.5;entryY=0;entryDx=0;entryDy=0;" edge="1" parent="dxGkeruf2liwoezaFk6p-1" source="dxGkeruf2liwoezaFk6p-3" target="dxGkeruf2liwoezaFk6p-14">
          <mxGeometry width="50" height="50" relative="1" as="geometry">
            <mxPoint x="300" y="150" as="sourcePoint" />
            <mxPoint x="350" y="100" as="targetPoint" />
          </mxGeometry>
        </mxCell>
        <mxCell id="dxGkeruf2liwoezaFk6p-18" value="Nhận dữ liệu trả về" style="rounded=0;whiteSpace=wrap;html=1;" vertex="1" parent="dxGkeruf2liwoezaFk6p-1">
          <mxGeometry x="70" y="260" width="140" height="60" as="geometry" />
        </mxCell>
        <mxCell id="dxGkeruf2liwoezaFk6p-43" value="" style="ellipse;html=1;shape=endState;fillColor=#000000;strokeColor=#ff0000;" vertex="1" parent="dxGkeruf2liwoezaFk6p-1">
          <mxGeometry x="130" y="650" width="30" height="30" as="geometry" />
        </mxCell>
        <mxCell id="dxGkeruf2liwoezaFk6p-44" value="" style="html=1;whiteSpace=wrap;aspect=fixed;shape=isoRectangle;" vertex="1" parent="dxGkeruf2liwoezaFk6p-1">
          <mxGeometry x="98.34" y="370" width="83.33" height="50" as="geometry" />
        </mxCell>
        <mxCell id="dxGkeruf2liwoezaFk6p-45" value="Hiển thị màn hình trống" style="rounded=0;whiteSpace=wrap;html=1;" vertex="1" parent="dxGkeruf2liwoezaFk6p-1">
          <mxGeometry x="10" y="460" width="120" height="60" as="geometry" />
        </mxCell>
        <mxCell id="dxGkeruf2liwoezaFk6p-46" value="Hiển thị danh sách phân trang và tổng số bản ghi" style="rounded=0;whiteSpace=wrap;html=1;" vertex="1" parent="dxGkeruf2liwoezaFk6p-1">
          <mxGeometry x="150" y="460" width="120" height="60" as="geometry" />
        </mxCell>
        <mxCell id="dxGkeruf2liwoezaFk6p-47" value="" style="endArrow=classic;html=1;rounded=0;" edge="1" parent="dxGkeruf2liwoezaFk6p-1">
          <mxGeometry width="50" height="50" relative="1" as="geometry">
            <mxPoint x="182" y="395" as="sourcePoint" />
            <mxPoint x="210" y="460" as="targetPoint" />
            <Array as="points">
              <mxPoint x="210" y="395" />
            </Array>
          </mxGeometry>
        </mxCell>
        <mxCell id="dxGkeruf2liwoezaFk6p-48" value="Có dữ liệu" style="text;html=1;align=center;verticalAlign=middle;whiteSpace=wrap;rounded=0;" vertex="1" parent="dxGkeruf2liwoezaFk6p-1">
          <mxGeometry x="181.66999999999996" y="370" width="60" height="30" as="geometry" />
        </mxCell>
        <mxCell id="dxGkeruf2liwoezaFk6p-49" value="" style="endArrow=classic;html=1;rounded=0;exitX=0.035;exitY=0.496;exitDx=0;exitDy=0;exitPerimeter=0;entryX=0.5;entryY=0;entryDx=0;entryDy=0;" edge="1" parent="dxGkeruf2liwoezaFk6p-1" source="dxGkeruf2liwoezaFk6p-44" target="dxGkeruf2liwoezaFk6p-45">
          <mxGeometry width="50" height="50" relative="1" as="geometry">
            <mxPoint x="340" y="490" as="sourcePoint" />
            <mxPoint x="390" y="440" as="targetPoint" />
            <Array as="points">
              <mxPoint x="70" y="395" />
            </Array>
          </mxGeometry>
        </mxCell>
        <mxCell id="dxGkeruf2liwoezaFk6p-50" value="Không có dữ liệu" style="text;html=1;align=center;verticalAlign=middle;whiteSpace=wrap;rounded=0;" vertex="1" parent="dxGkeruf2liwoezaFk6p-1">
          <mxGeometry x="40" y="360" width="60" height="30" as="geometry" />
        </mxCell>
        <mxCell id="dxGkeruf2liwoezaFk6p-51" value="" style="html=1;points=[[0,0,0,0,5],[0,1,0,0,-5],[1,0,0,0,5],[1,1,0,0,-5]];perimeter=orthogonalPerimeter;outlineConnect=0;targetShapes=umlLifeline;portConstraint=eastwest;newEdgeStyle={&quot;curved&quot;:0,&quot;rounded&quot;:0};direction=south;fillColor=#000000;" vertex="1" parent="dxGkeruf2liwoezaFk6p-1">
          <mxGeometry x="80" y="580" width="120" height="10" as="geometry" />
        </mxCell>
        <mxCell id="dxGkeruf2liwoezaFk6p-52" value="" style="endArrow=classic;html=1;rounded=0;exitX=0.5;exitY=1;exitDx=0;exitDy=0;entryX=0;entryY=0.417;entryDx=0;entryDy=0;entryPerimeter=0;" edge="1" parent="dxGkeruf2liwoezaFk6p-1" source="dxGkeruf2liwoezaFk6p-45" target="dxGkeruf2liwoezaFk6p-51">
          <mxGeometry width="50" height="50" relative="1" as="geometry">
            <mxPoint x="340" y="490" as="sourcePoint" />
            <mxPoint x="390" y="440" as="targetPoint" />
          </mxGeometry>
        </mxCell>
        <mxCell id="dxGkeruf2liwoezaFk6p-53" value="" style="endArrow=classic;html=1;rounded=0;entryX=0.5;entryY=0;entryDx=0;entryDy=0;" edge="1" parent="dxGkeruf2liwoezaFk6p-1" source="dxGkeruf2liwoezaFk6p-51" target="dxGkeruf2liwoezaFk6p-43">
          <mxGeometry width="50" height="50" relative="1" as="geometry">
            <mxPoint x="340" y="490" as="sourcePoint" />
            <mxPoint x="390" y="440" as="targetPoint" />
          </mxGeometry>
        </mxCell>
        <mxCell id="dxGkeruf2liwoezaFk6p-54" value="" style="endArrow=classic;html=1;rounded=0;exitX=0.5;exitY=1;exitDx=0;exitDy=0;" edge="1" parent="dxGkeruf2liwoezaFk6p-1" source="dxGkeruf2liwoezaFk6p-46">
          <mxGeometry width="50" height="50" relative="1" as="geometry">
            <mxPoint x="340" y="490" as="sourcePoint" />
            <mxPoint x="150" y="580" as="targetPoint" />
          </mxGeometry>
        </mxCell>
        <mxCell id="dxGkeruf2liwoezaFk6p-55" value="" style="endArrow=classic;html=1;rounded=0;exitX=0.5;exitY=1;exitDx=0;exitDy=0;" edge="1" parent="dxGkeruf2liwoezaFk6p-1" source="dxGkeruf2liwoezaFk6p-18">
          <mxGeometry width="50" height="50" relative="1" as="geometry">
            <mxPoint x="300" y="490" as="sourcePoint" />
            <mxPoint x="140" y="370" as="targetPoint" />
          </mxGeometry>
        </mxCell>
        <mxCell id="dxGkeruf2liwoezaFk6p-10" value="Server" style="swimlane;whiteSpace=wrap;html=1;" vertex="1" parent="1">
          <mxGeometry x="360" y="40" width="280" height="720" as="geometry" />
        </mxCell>
        <mxCell id="dxGkeruf2liwoezaFk6p-16" value="Lấy dữ liệu theo từ khóa tìm kiếm" style="rounded=0;whiteSpace=wrap;html=1;" vertex="1" parent="dxGkeruf2liwoezaFk6p-10">
          <mxGeometry x="60" y="150" width="160" height="60" as="geometry" />
        </mxCell>
        <mxCell id="dxGkeruf2liwoezaFk6p-17" value="" style="endArrow=classic;html=1;rounded=0;exitX=1;exitY=0.5;exitDx=0;exitDy=0;entryX=0;entryY=0.5;entryDx=0;entryDy=0;" edge="1" parent="1" source="dxGkeruf2liwoezaFk6p-14" target="dxGkeruf2liwoezaFk6p-16">
          <mxGeometry width="50" height="50" relative="1" as="geometry">
            <mxPoint x="380" y="290" as="sourcePoint" />
            <mxPoint x="430" y="240" as="targetPoint" />
          </mxGeometry>
        </mxCell>
        <mxCell id="dxGkeruf2liwoezaFk6p-20" value="" style="endArrow=classic;html=1;rounded=0;exitX=0.554;exitY=1.044;exitDx=0;exitDy=0;exitPerimeter=0;entryX=1;entryY=0.5;entryDx=0;entryDy=0;" edge="1" parent="1" source="dxGkeruf2liwoezaFk6p-16" target="dxGkeruf2liwoezaFk6p-18">
          <mxGeometry width="50" height="50" relative="1" as="geometry">
            <mxPoint x="380" y="290" as="sourcePoint" />
            <mxPoint x="430" y="240" as="targetPoint" />
            <Array as="points">
              <mxPoint x="510" y="330" />
            </Array>
          </mxGeometry>
        </mxCell>
      </root>
    </mxGraphModel>
  </diagram>
</mxfile>
